<?xml version="1.0" standalone="no"?>
<!DOCTYPE svg PUBLIC "-//W3C//DTD SVG 20010904//EN"
 "http://www.w3.org/TR/2001/REC-SVG-20010904/DTD/svg10.dtd">
<svg version="1.0" xmlns="http://www.w3.org/2000/svg"
 width="446.000000pt" height="446.000000pt" viewBox="0 0 446.000000 446.000000"
 preserveAspectRatio="xMidYMid meet">
<metadata>
Created by potrace 1.14, written by Peter Selinger 2001-2017
</metadata>
<g transform="translate(0.000000,446.000000) scale(0.100000,-0.100000)"
fill="#000000" stroke="none">
<path d="M1944 4451 c4 -6 1 -11 -6 -12 -26 -1 -84 -8 -108 -13 -45 -9 -75
-16 -105 -23 -16 -4 -33 -6 -37 -5 -5 1 -8 -3 -8 -9 0 -5 -5 -7 -10 -4 -9 6
-55 -5 -100 -22 -8 -4 -17 -7 -20 -8 -75 -23 -115 -37 -153 -54 -25 -12 -53
-21 -61 -21 -9 0 -16 -4 -16 -10 0 -5 -6 -10 -12 -10 -19 0 -121 -52 -136 -70
-8 -8 -11 -9 -7 -2 3 6 -24 -7 -62 -30 -37 -24 -69 -46 -71 -50 -2 -5 -12 -8
-23 -8 -10 0 -19 -3 -19 -8 0 -4 -18 -18 -40 -32 -22 -14 -40 -28 -40 -32 0
-5 -7 -8 -16 -8 -8 0 -12 -4 -9 -10 3 -5 1 -10 -6 -10 -14 0 -93 -65 -172
-140 -32 -30 -62 -56 -67 -58 -6 -2 -10 -7 -10 -11 0 -4 -24 -32 -52 -63 -88
-92 -201 -242 -191 -252 4 -3 1 -6 -5 -6 -23 0 -173 -277 -222 -410 -13 -36
-27 -70 -32 -76 -5 -7 -8 -16 -6 -20 1 -5 -3 -19 -10 -31 -7 -12 -11 -26 -10
-30 1 -4 -3 -18 -10 -29 -6 -12 -9 -24 -6 -27 3 -3 1 -15 -5 -26 -6 -11 -13
-33 -16 -48 -2 -15 -8 -44 -13 -63 -5 -19 -9 -38 -10 -42 -1 -5 -3 -9 -3 -10
-1 -2 -3 -16 -4 -33 -2 -16 -4 -31 -5 -32 -3 -4 -7 -36 -9 -69 -1 -17 -5 -23
-13 -18 -8 5 -8 1 1 -10 9 -11 11 -20 5 -24 -12 -8 -13 -451 -1 -469 5 -8 4
-13 -3 -13 -7 0 -8 -5 -3 -12 4 -7 9 -24 9 -38 1 -14 3 -25 4 -25 1 0 3 -11 5
-25 2 -14 6 -36 9 -50 3 -13 8 -42 12 -64 3 -22 8 -44 11 -48 5 -9 15 -56 16
-75 0 -7 4 -13 9 -13 4 0 7 -3 6 -7 -4 -15 24 -113 32 -113 5 0 7 -9 5 -20 -2
-11 1 -20 7 -20 5 0 8 -7 4 -15 -3 -8 -1 -15 4 -15 6 0 10 -8 10 -18 0 -10 3
-22 7 -26 5 -4 8 -11 8 -14 1 -4 6 -17 13 -28 6 -12 8 -24 5 -28 -3 -3 -1 -6
6 -6 7 0 9 -4 6 -10 -3 -5 -1 -10 4 -10 6 0 11 -6 11 -14 0 -17 41 -98 55
-108 6 -4 6 -8 2 -8 -5 0 1 -12 12 -26 11 -15 18 -30 15 -35 -3 -5 0 -9 5 -9
6 0 11 -7 11 -15 0 -8 5 -15 10 -15 6 0 10 -7 10 -15 0 -8 4 -15 10 -15 5 0 9
-3 9 -7 -3 -20 2 -34 11 -28 6 3 10 -1 10 -9 0 -8 6 -21 12 -28 7 -7 29 -36
47 -63 35 -50 55 -75 98 -122 13 -13 23 -26 23 -28 0 -2 47 -52 105 -109 58
-58 105 -103 105 -99 0 3 15 -10 33 -29 17 -19 46 -44 62 -54 17 -10 34 -24
38 -31 4 -7 14 -13 22 -13 7 0 15 -3 17 -7 5 -12 95 -73 107 -73 6 0 11 -4 11
-8 0 -4 22 -19 50 -33 27 -13 50 -28 50 -32 0 -5 4 -6 9 -3 5 3 14 -1 21 -9 7
-8 16 -12 21 -9 5 3 9 0 9 -7 0 -7 3 -10 6 -6 4 3 13 -1 21 -9 8 -8 19 -12 24
-9 5 4 9 1 9 -4 0 -6 9 -11 20 -11 11 0 20 -4 20 -10 0 -5 9 -10 19 -10 11 0
22 -4 25 -9 3 -4 26 -14 51 -21 25 -7 48 -17 51 -21 3 -5 16 -9 30 -9 13 0 24
-4 24 -10 0 -5 13 -10 29 -10 17 0 33 -5 36 -11 4 -6 13 -8 21 -5 8 3 14 1 14
-5 0 -5 6 -9 13 -8 6 1 19 0 27 -4 14 -5 50 -13 95 -22 11 -2 21 -4 23 -5 1
-2 11 -4 22 -5 11 -1 23 -4 28 -5 16 -5 28 -7 55 -8 19 -1 26 -6 21 -14 -5 -7
-3 -8 7 -2 19 12 39 14 39 4 0 -4 9 -10 20 -13 11 -3 18 -1 15 3 -6 10 15 8
33 -3 7 -5 12 -3 12 5 0 9 2 10 8 1 5 -8 81 -11 274 -10 238 0 265 2 260 16
-5 14 -3 14 11 2 9 -7 17 -9 17 -3 0 9 44 22 93 27 9 2 18 4 20 5 1 1 11 4 22
5 63 10 315 93 326 108 3 5 8 7 10 6 2 -1 20 3 39 11 19 7 37 14 40 15 23 7
176 90 196 106 6 5 14 6 17 2 4 -3 7 -1 7 5 0 7 5 12 11 12 7 0 34 16 61 35
27 20 54 33 60 29 7 -4 8 -3 4 4 -4 7 -3 12 2 12 5 0 18 8 30 17 52 45 62 53
62 48 0 -2 12 7 26 20 15 14 31 25 36 25 5 0 6 5 3 10 -3 6 1 10 9 10 8 0 20
8 25 18 6 9 11 14 11 11 0 -4 36 28 81 71 44 43 81 81 81 83 -1 3 18 25 41 49
61 63 112 125 115 140 2 7 11 20 22 29 11 9 16 19 13 23 -4 3 0 6 7 6 7 0 11
3 8 6 -3 3 5 17 18 31 13 14 24 32 24 39 0 8 4 14 9 14 5 0 14 14 21 30 7 17
17 30 22 30 5 0 7 4 3 10 -3 5 3 18 15 30 11 11 18 20 15 20 -3 0 2 15 12 33
9 17 17 34 18 37 0 3 12 28 27 57 14 28 24 54 21 57 -4 3 -1 6 5 6 7 0 11 3
10 8 0 4 3 16 7 27 31 76 43 114 38 119 -4 3 -1 6 5 6 7 0 11 3 11 8 -1 4 -1
9 1 12 1 3 3 15 6 28 2 13 11 36 19 53 11 20 12 29 4 29 -8 0 -9 4 0 13 6 8
12 22 14 33 1 10 5 24 8 29 4 6 5 18 4 28 -2 9 1 17 7 17 6 0 8 7 5 15 -4 8
-1 17 5 21 7 4 6 9 -3 15 -10 6 -11 9 -1 9 6 0 12 7 12 15 0 8 6 15 13 15 8 0
7 4 -3 10 -13 9 -12 12 4 25 20 15 20 15 0 15 -14 0 -16 2 -6 9 8 4 13 11 13
15 -1 3 -1 7 0 9 6 20 5 36 -2 31 -5 -3 -9 0 -9 5 0 6 4 11 9 11 5 0 9 98 9
230 0 165 -4 230 -12 230 -7 0 -7 3 -1 8 14 10 17 32 4 32 -8 0 -7 6 2 17 10
11 10 14 1 9 -6 -4 -12 -4 -13 1 0 4 -2 18 -5 30 -2 14 1 21 9 19 6 -1 9 -1 4
1 -4 3 -4 10 -1 15 4 7 2 8 -4 4 -7 -4 -12 -4 -13 1 0 4 -2 19 -4 33 -3 22 -5
37 -18 100 -1 8 -6 21 -10 28 -5 6 -6 16 -2 21 3 5 1 12 -4 15 -5 4 -8 14 -7
24 2 9 0 19 -5 22 -4 3 -9 17 -11 30 -2 14 -9 35 -16 46 -6 12 -9 24 -5 27 3
4 1 12 -4 19 -6 7 -14 28 -18 46 -3 17 -11 32 -16 32 -6 0 -8 4 -5 9 3 5 -5
29 -19 55 -13 25 -22 46 -19 46 4 0 -1 11 -10 25 -9 14 -14 25 -11 25 4 0 -1
7 -9 16 -9 8 -14 20 -11 25 4 5 2 9 -3 9 -4 0 -14 16 -22 35 -8 19 -18 35 -24
35 -5 0 -7 3 -4 6 4 3 -5 22 -18 41 -13 20 -24 42 -24 50 0 8 -4 11 -10 8 -5
-3 -10 -1 -10 5 0 8 -55 99 -83 135 -4 6 -17 22 -28 38 -11 15 -25 24 -31 21
-7 -4 -8 -2 -4 5 5 7 -1 20 -13 30 -12 10 -21 22 -21 27 0 5 -15 23 -32 41
-18 17 -50 50 -72 72 -21 23 -42 41 -48 41 -5 0 -6 5 -3 10 3 6 -1 10 -9 10
-9 0 -16 7 -16 17 0 9 -3 14 -6 11 -3 -4 -26 14 -51 38 -26 24 -49 42 -51 39
-3 -2 -13 7 -24 20 -11 14 -24 25 -29 25 -6 0 -20 11 -33 25 -13 14 -28 25
-33 25 -6 0 -16 7 -23 15 -7 8 -16 12 -21 9 -5 -3 -9 -1 -9 4 0 14 -137 99
-152 94 -5 -1 -8 3 -8 8 0 6 -7 10 -15 10 -8 0 -15 5 -15 11 0 6 -6 9 -14 6
-8 -3 -17 1 -20 9 -3 8 -9 13 -13 12 -4 -1 -22 5 -39 15 -17 9 -34 13 -38 10
-3 -4 -6 -1 -6 5 0 7 -4 12 -10 12 -5 0 -34 11 -64 25 -30 14 -61 25 -68 25
-8 0 -19 5 -26 12 -7 7 -12 9 -12 5 0 -3 -21 2 -46 13 -25 11 -58 21 -75 22
-16 1 -29 5 -29 8 0 5 -42 16 -137 35 -13 3 -33 8 -45 11 -13 3 -35 7 -50 8
-16 0 -28 3 -28 6 0 8 -53 11 -310 14 -135 2 -252 0 -260 -4 -9 -5 -24 -4 -34
2 -14 8 -17 7 -12 -1z m586 -4431 c0 -5 -5 -10 -11 -10 -5 0 -7 5 -4 10 3 6 8
10 11 10 2 0 4 -4 4 -10z"/>
<path d="M4445 2540 c-3 -5 -1 -10 4 -10 6 0 11 5 11 10 0 6 -2 10 -4 10 -3 0
-8 -4 -11 -10z"/>
</g>
</svg>
